<svg xmlns="http://www.w3.org/2000/svg" width="100%" height="100%" viewBox="0 0 800 600" fill="none">
  <g clip-path="url(#clip0_1_2)">
    <!-- Background elements -->
    <circle cx="400" cy="300" r="250" fill="#f0f4ff" />
    <circle cx="400" cy="300" r="180" fill="#e0e8ff" />
    
    <!-- Email envelope -->
    <rect x="270" y="200" width="260" height="180" rx="8" fill="white" stroke="#5a67d8" stroke-width="4"/>
    
    <!-- Envelope flap -->
    <path d="M270 208L400 280L530 208" stroke="#5a67d8" stroke-width="4" fill="none"/>
    
    <!-- Lock symbol -->
    <rect x="350" y="250" width="100" height="80" rx="8" fill="#5a67d8"/>
    <rect x="380" y="230" width="40" height="40" rx="20" stroke="#5a67d8" stroke-width="8" fill="white"/>
    <circle cx="400" cy="290" r="10" fill="white"/>
    <rect x="395" y="290" width="10" height="20" fill="white"/>
    
    <!-- Reset arrows -->
    <path d="M200 350C200 250 300 200 400 200" stroke="#8a9cf9" stroke-width="6" stroke-linecap="round" stroke-dasharray="12 12"/>
    <path d="M600 350C600 450 500 500 400 500" stroke="#8a9cf9" stroke-width="6" stroke-linecap="round" stroke-dasharray="12 12"/>
    
    <!-- Arrow heads -->
    <path d="M410 190L400 210L390 190" fill="#8a9cf9"/>
    <path d="M390 510L400 490L410 510" fill="#8a9cf9"/>
  </g>
  <defs>
    <clipPath id="clip0_1_2">
      <rect width="800" height="600" fill="white"/>
    </clipPath>
  </defs>
</svg>